# xmcd
#
# Track frame offsets: 
#        150
#        25400
#        49423
#        85433
#        107688
#        136338
#        163474
#
# Disc length: 2482 seconds
#
# Revision: 0
# Processed by: cddbd v1.5.2PL0 Copyright (c) Steve Scherf et al.
# Submitted via: ExactAudioCopy v1.3
#
DISCID=6209b007
DTITLE=Corey Medina - The Brothers EP
DYEAR=2018
DGENRE=Blues
TTITLE0=Chophouse
TTITLE1=Hold Fast
TTITLE2=Burn
TTITLE3=Rocking Chair
TTITLE4=Only You (Ft. Paul Shepherd)
TTITLE5=Long Time Comin' (Live)
TTITLE6=Want It All (Live )
EXTD=
EXTT0=
EXTT1=
EXTT2=
EXTT3=
EXTT4=
EXTT5=
EXTT6=
PLAYORDER=
